<svg width="13" height="15" viewBox="0 0 13 15" fill="none" xmlns="http://www.w3.org/2000/svg">
<path d="M1.16667 0.333344H11.8333C12.2015 0.333344 12.5 0.631824 12.5 1.00001V13.8509C12.5 14.035 12.3507 14.1843 12.1667 14.1843C12.1199 14.1843 12.0736 14.1743 12.0309 14.1553L6.5 11.6875L0.969153 14.1553C0.801033 14.2303 0.60394 14.1548 0.528927 13.9867C0.509853 13.9439 0.5 13.8977 0.5 13.8509V1.00001C0.5 0.631824 0.79848 0.333344 1.16667 0.333344ZM11.1667 12.3097V1.66668H1.83333V12.3097L6.5 10.2275L11.1667 12.3097ZM6.5 8.00001L4.54071 9.03008L4.91491 6.84834L3.32981 5.30329L5.52033 4.98498L6.5 3.00001L7.47967 4.98498L9.6702 5.30329L8.08507 6.84834L8.45927 9.03008L6.5 8.00001Z" fill="#878787"/>
</svg>
