<svg width="14" height="15" viewBox="0 0 14 15" fill="none" xmlns="http://www.w3.org/2000/svg">
<path d="M6.99999 13.3333C3.77833 13.3333 1.16666 10.7216 1.16666 7.50001C1.16666 4.27834 3.77833 1.66667 6.99999 1.66667C10.2216 1.66667 12.8333 4.27834 12.8333 7.50001C12.8333 10.7216 10.2216 13.3333 6.99999 13.3333ZM6.99999 12.1667C9.57733 12.1667 11.6667 10.0773 11.6667 7.50001C11.6667 4.92268 9.57733 2.83334 6.99999 2.83334C4.42266 2.83334 2.33332 4.92268 2.33332 7.50001C2.33332 10.0773 4.42266 12.1667 6.99999 12.1667ZM7.58332 7.50001H9.91666V8.66667H6.41666V4.58334H7.58332V7.50001Z" fill="#4FAF5A"/>
</svg>
