<svg width="13" height="14" viewBox="0 0 13 14" fill="none" xmlns="http://www.w3.org/2000/svg">
<path d="M11.8366 13.6667H1.16992C0.801734 13.6667 0.503254 13.3682 0.503254 13V1.00001C0.503254 0.631823 0.801734 0.333344 1.16992 0.333344H11.8366C12.2048 0.333344 12.5033 0.631823 12.5033 1.00001V13C12.5033 13.3682 12.2048 13.6667 11.8366 13.6667ZM11.1699 12.3333V1.66668H1.83659V12.3333H11.1699ZM4.50325 3.00001V4.33334C4.50325 5.43791 5.39867 6.33334 6.50327 6.33334C7.6078 6.33334 8.50327 5.43791 8.50327 4.33334V3.00001H9.8366V4.33334C9.8366 6.17428 8.3442 7.66668 6.50327 7.66668C4.66231 7.66668 3.16992 6.17428 3.16992 4.33334V3.00001H4.50325Z" fill="#878787"/>
</svg>
